# xmcd
#
# Track frame offsets:
#  150
#  12574
#  30018
#  45616
#  81007
#  104900
#  125586
#  142133
#  160519
#  172793
#  188166
#
# Disc length: 2587 seconds
#
# Revision: 1
# Processed by: cddbd v1.5.1PL2 Copyright (c) Steve Scherf et al.
# Submitted via: Collectorz.com_Music_Collector 6.11
#
DISCID=870a190b
DTITLE=Trouble and Strife - Trouble and Strife
DYEAR=2006
DGENRE=Blues
TTITLE0=Keep On Drinking
TTITLE1=Millie's Blues
TTITLE2=Too Many Problems
TTITLE3=Nothing Left To Take
TTITLE4=Little Maggie
TTITLE5=Slow Down Baby
TTITLE6=Hard Times On A Blue Planet
TTITLE7=I Got The Blues
TTITLE8=So Glad You're Home
TTITLE9=Better Life
TTITLE10=Dead End Blues
EXTD=
EXTT0=
EXTT1=
EXTT2=
EXTT3=
EXTT4=
EXTT5=
EXTT6=
EXTT7=
EXTT8=
EXTT9=
EXTT10=
PLAYORDER=
